<svg xmlns="http://www.w3.org/2000/svg" xmlns:xlink="http://www.w3.org/1999/xlink" viewBox="0,0,256,256" width="100px" height="100px" fill-rule="nonzero"><g fill="#f4f4f4" fill-rule="nonzero" stroke="none" stroke-width="1" stroke-linecap="butt" stroke-linejoin="miter" stroke-miterlimit="10" stroke-dasharray="" stroke-dashoffset="0" font-family="none" font-weight="none" font-size="none" text-anchor="none" style="mix-blend-mode: normal"><g transform="scale(10.66667,10.66667)"><path d="M5,3c-1.10156,0 -2,0.89844 -2,2v14c0,1.10156 0.89844,2 2,2h14c1.10156,0 2,-0.89844 2,-2v-14c0,-1.10156 -0.89844,-2 -2,-2zM15.5,7.5c0.5,0 0.90625,0.40625 0.90625,0.90625c0,0.5 -0.40625,0.90625 -0.90625,0.90625c-0.5,0 -0.90625,-0.40625 -0.90625,-0.90625c0,-0.5 0.40625,-0.90625 0.90625,-0.90625zM9.6875,7.90625h1.625l2.6875,8.5h-1.90625l-0.5,-1.71875h-2.28125l-0.5,1.71875h-1.8125zM14.6875,10.09375h1.71875v6.3125h-1.71875zM10.5,10.1875l-0.8125,3h1.625z"></path></g></g></svg>